<?xml version="1.0" standalone="no"?>
<!DOCTYPE svg PUBLIC "-//W3C//DTD SVG 20010904//EN"
 "http://www.w3.org/TR/2001/REC-SVG-20010904/DTD/svg10.dtd">
<svg version="1.0" xmlns="http://www.w3.org/2000/svg"
 width="2048.000000pt" height="1152.000000pt" viewBox="0 0 2048.000000 1152.000000"
 preserveAspectRatio="xMidYMid meet">
<metadata>
Created by potrace 1.15, written by Peter Selinger 2001-2017
</metadata>
<g transform="translate(0.000000,1152.000000) scale(0.100000,-0.100000)"
fill="#000000" stroke="none">
<path d="M0 5760 l0 -5760 10240 0 10240 0 0 5760 0 5760 -10240 0 -10240 0 0
-5760z m9403 2910 c-6 -24 12 -27 21 -4 5 12 10 13 19 5 7 -5 26 -9 43 -8 19
1 28 -2 27 -10 -2 -7 6 -13 17 -13 11 0 20 7 20 15 0 8 7 15 15 15 8 0 14 -6
13 -12 -2 -8 9 -14 26 -16 18 -2 26 0 21 7 -8 14 12 14 93 0 43 -8 60 -14 51
-20 -15 -9 -14 -10 39 -14 21 -2 35 2 39 11 7 19 23 18 23 -2 0 -11 6 -14 21
-9 18 6 20 4 14 -14 -5 -16 -3 -20 10 -15 10 4 14 13 10 22 -3 8 0 19 7 24 22
14 29 9 18 -13 -9 -15 -8 -24 1 -35 6 -8 8 -14 5 -14 -4 0 -4 -5 0 -11 4 -8 9
-8 17 0 15 15 50 14 65 -1 6 -6 15 -9 18 -5 4 4 -4 15 -16 25 l-23 19 32 11
c17 6 29 7 26 2 -3 -4 1 -11 7 -14 7 -3 0 -2 -17 1 -28 6 -29 5 -16 -11 11
-13 23 -16 53 -11 31 6 38 4 38 -9 0 -9 5 -16 10 -16 6 0 10 3 10 8 0 4 19 7
43 7 23 1 50 5 60 9 11 5 17 4 17 -3 0 -6 -9 -11 -20 -11 -11 0 -20 -6 -20
-13 0 -17 48 -16 59 2 11 18 32 5 24 -15 -4 -12 2 -14 38 -10 24 3 36 3 27 0
-10 -3 -18 -10 -18 -15 0 -15 37 -10 44 6 4 12 10 13 30 4 16 -7 22 -17 19
-26 -5 -12 -1 -14 18 -7 13 4 34 7 46 6 12 -1 26 5 31 14 7 13 10 10 15 -14 5
-23 13 -31 36 -35 17 -4 38 -4 47 0 14 5 16 2 12 -15 -5 -16 0 -25 15 -34 12
-6 26 -17 30 -24 4 -8 13 -14 19 -14 9 0 9 3 0 12 -7 7 -12 18 -12 25 0 19 28
16 33 -4 4 -15 6 -15 12 5 4 13 15 22 27 22 14 0 18 -5 14 -15 -3 -10 1 -15
13 -15 10 0 22 -7 25 -15 4 -13 10 -14 26 -5 25 13 26 7 3 -16 -13 -13 -14
-19 -5 -22 6 -2 12 -10 12 -18 0 -9 5 -12 10 -9 8 5 7 11 -1 21 -10 12 -8 18
7 29 26 20 69 19 85 -2 13 -16 12 -17 -3 -4 -19 14 -48 9 -48 -9 0 -5 11 -10
25 -10 15 0 25 -6 25 -14 0 -21 21 -31 31 -15 7 11 9 11 9 -2 0 -23 30 -34 31
-11 0 14 2 14 9 -3 5 -11 9 -14 9 -7 1 10 10 12 31 7 31 -7 39 2 18 23 -9 9
-9 12 -1 12 7 0 15 -5 18 -10 4 -6 16 -8 27 -4 20 6 20 6 -1 -17 l-22 -23 23
-9 c17 -6 26 -3 35 9 10 13 16 15 24 7 6 -6 17 -9 24 -7 7 3 16 1 20 -5 4 -7
-5 -11 -24 -11 -17 0 -31 -5 -31 -10 0 -9 27 -7 68 6 10 3 16 -7 14 -27 -1 -3
10 -11 23 -17 22 -10 25 -9 25 7 0 11 -5 21 -10 23 -7 2 -5 11 4 23 15 20 15
20 16 -2 0 -26 35 -50 43 -30 3 6 6 -7 6 -30 1 -24 5 -43 9 -43 5 0 8 10 8 22
-1 15 6 23 19 25 l20 3 -20 -9 c-19 -8 -19 -8 3 -15 13 -4 28 -3 35 2 19 14
86 2 92 -17 7 -23 72 -43 79 -24 3 8 10 11 16 8 5 -3 10 -1 10 6 0 7 3 10 6 6
3 -3 1 -14 -5 -24 -7 -12 -10 -14 -11 -4 0 8 -2 12 -5 9 -3 -3 -2 -13 1 -22 4
-10 10 -14 13 -9 3 4 21 16 40 26 31 16 34 16 46 1 7 -10 19 -15 27 -11 9 3
21 0 27 -6 6 -6 14 -7 18 -2 5 4 2 10 -4 12 -7 3 -13 12 -13 21 1 15 3 14 15
-2 8 -11 12 -29 9 -42 -5 -19 -2 -22 20 -20 22 1 26 6 26 30 0 33 12 28 17 -7
2 -12 4 -27 5 -33 1 -6 10 -9 22 -6 18 5 18 7 4 10 -10 2 -18 7 -18 12 0 9 38
5 47 -4 3 -3 16 -1 29 4 13 5 23 6 23 2 -3 -19 2 -23 16 -12 12 10 16 9 21 -3
5 -13 9 -14 25 -4 16 10 21 9 28 -2 5 -7 13 -11 19 -7 6 3 12 -3 14 -16 2 -12
8 -23 15 -25 7 -3 9 3 6 16 -4 15 -1 21 11 21 9 0 16 -7 16 -15 0 -9 9 -15 25
-15 14 0 25 5 25 10 0 6 -4 10 -10 10 -5 0 -10 7 -10 16 0 12 4 14 13 7 6 -6
32 -13 57 -17 41 -5 43 -5 26 9 -11 8 -30 15 -43 15 -13 0 -23 5 -23 10 0 6 9
10 20 10 11 0 20 5 20 10 0 18 20 11 20 -7 1 -10 17 -36 37 -58 26 -30 34 -34
29 -17 -6 16 -3 22 8 22 9 0 16 -7 16 -15 0 -13 4 -13 23 -3 12 7 24 16 27 19
11 14 64 16 88 3 32 -16 43 -9 16 11 -28 21 4 20 35 -1 19 -14 25 -14 31 -3 5
7 6 17 4 21 -12 18 10 6 38 -22 35 -35 42 -37 33 -10 -5 16 -2 20 18 20 25 0
48 -29 24 -31 -7 0 -3 -4 8 -8 11 -5 25 -4 32 1 7 6 18 6 30 0 10 -5 32 -7 50
-5 28 5 31 8 23 27 -6 17 -4 25 11 34 23 15 29 15 29 2 0 -5 -7 -10 -15 -10
-17 0 -20 -16 -5 -25 6 -4 8 -11 5 -16 -11 -17 15 -9 35 11 16 16 25 18 40 10
10 -5 28 -10 39 -10 12 0 21 -4 21 -10 0 -5 -5 -9 -11 -7 -6 1 -13 -3 -16 -9
-2 -6 7 -14 20 -16 20 -4 24 -1 20 16 -4 20 -3 20 10 4 8 -10 17 -15 20 -11 4
3 7 -1 7 -10 0 -10 8 -17 18 -17 15 0 18 6 13 33 l-5 32 -7 -30 c-6 -26 -7
-27 -7 -5 0 30 15 92 17 70 1 -13 2 -13 12 0 7 11 8 4 3 -23 -6 -34 -4 -38 12
-35 10 2 19 -2 19 -9 0 -6 3 -15 7 -19 4 -4 3 -13 -3 -21 -13 -15 -1 -17 21
-3 12 8 13 12 2 19 -16 9 -12 59 3 51 5 -3 9 -9 7 -14 -5 -16 22 -26 51 -20
20 4 27 2 27 -10 0 -8 5 -18 12 -22 7 -4 8 -3 4 5 -5 7 3 22 18 36 14 13 26
29 26 35 0 16 14 12 28 -10 10 -17 10 -20 -4 -20 -8 0 -12 -4 -9 -10 10 -17
45 -12 39 5 -4 8 -1 15 5 15 6 0 11 -8 12 -17 0 -15 2 -15 8 2 6 15 3 21 -13
27 -17 5 -15 6 10 7 27 1 31 -2 29 -23 -2 -14 -6 -29 -9 -35 -5 -7 11 -8 46
-5 68 8 75 14 13 14 -38 0 -45 3 -36 13 6 8 8 17 4 20 -3 4 -1 7 5 7 7 0 12
-4 12 -9 0 -19 65 -19 96 0 49 30 60 20 23 -20 -12 -12 -19 -24 -16 -27 7 -7
37 7 37 18 0 11 25 38 36 38 5 0 3 -5 -4 -12 -20 -20 -15 -40 10 -33 17 6 20
4 15 -9 -4 -9 -2 -16 3 -16 6 0 10 7 10 15 0 8 9 15 20 15 11 0 20 -4 20 -9 0
-14 28 -7 51 12 10 9 24 17 30 17 7 0 0 -9 -15 -21 -14 -11 -23 -25 -19 -31 3
-6 10 -25 14 -42 7 -30 7 -30 8 -4 1 34 20 46 36 25 7 -10 17 -17 24 -17 6 0
11 -4 11 -10 0 -5 -7 -10 -16 -10 -13 0 -14 -3 -5 -14 6 -7 8 -22 4 -32 -6
-18 -6 -18 10 -2 9 9 17 24 17 32 0 10 9 16 21 16 18 0 19 -2 9 -15 -17 -21
-8 -28 22 -16 15 6 31 5 42 -1 14 -8 18 -6 23 10 3 13 13 19 28 18 20 -1 23
-5 18 -25 -5 -20 -3 -23 10 -18 9 3 19 2 22 -4 4 -5 -8 -14 -25 -20 -17 -6
-29 -16 -27 -23 5 -14 67 -21 67 -7 0 6 -6 8 -14 5 -8 -3 -17 -1 -21 5 -3 7 2
11 14 11 11 0 25 8 31 18 8 13 9 5 5 -33 -5 -39 -4 -46 5 -32 14 21 30 22 30
1 0 -8 5 -12 10 -9 12 8 40 -12 40 -28 0 -7 -4 -7 -12 1 -19 19 -38 14 -38 -9
0 -11 -4 -18 -9 -15 -4 3 -7 18 -5 33 4 24 3 25 -5 8 -5 -11 -10 -17 -10 -13
-1 3 -13 3 -27 -1 -20 -5 -28 -14 -30 -34 -2 -19 2 -27 12 -27 11 0 13 6 9 20
-5 14 -2 20 10 20 13 0 15 -6 10 -30 -5 -25 -3 -30 12 -31 10 0 29 -2 42 -5
14 -2 28 1 32 7 4 6 12 8 18 5 8 -5 6 -13 -6 -24 -16 -16 -15 -17 5 -20 24 -4
28 -12 11 -29 -9 -9 -8 -16 4 -27 18 -19 47 -21 47 -4 0 9 3 9 11 1 8 -8 8
-17 0 -32 -10 -17 -9 -21 4 -21 8 0 15 -4 15 -9 0 -5 10 -7 23 -4 18 4 19 3 7
-6 -10 -7 -11 -11 -3 -11 7 0 10 -7 6 -16 -5 -13 0 -15 23 -12 25 3 29 0 36
-36 10 -49 13 -52 33 -36 12 10 15 10 15 -4 0 -9 -4 -16 -9 -16 -5 0 -11 -7
-15 -15 -3 -8 -2 -14 2 -14 33 5 41 -3 40 -36 -1 -27 -5 -35 -17 -33 -9 1 -16
-2 -16 -7 0 -5 6 -9 13 -7 18 4 14 -26 -5 -37 -10 -5 -14 -13 -10 -17 11 -11
47 32 47 56 0 11 5 20 11 20 8 0 10 -12 6 -35 -6 -34 -4 -36 25 -42 27 -5 29
-8 14 -18 -17 -13 -17 -44 0 -67 6 -7 14 -21 17 -31 6 -15 10 -16 28 -7 11 7
23 10 25 7 9 -8 -11 -42 -25 -42 -8 0 -16 -6 -18 -12 -3 -9 7 -13 32 -13 32 0
36 -2 25 -15 -6 -8 -9 -19 -6 -24 4 -5 1 -13 -5 -16 -5 -4 -8 -13 -5 -21 7
-17 -6 -18 -23 -1 -11 9 -10 7 0 -10 10 -17 24 -23 54 -24 35 -2 36 -3 10 -7
l-30 -5 25 -7 25 -8 -27 -1 c-30 -1 -49 -21 -21 -22 16 0 16 -1 -2 -8 -19 -8
-19 -8 0 -19 11 -6 14 -12 8 -12 -23 0 -14 -30 10 -31 l22 0 -22 -9 c-13 -5
-23 -14 -23 -21 0 -7 7 -8 18 -4 31 13 62 16 62 6 0 -5 -10 -11 -22 -13 -13
-2 -24 -11 -27 -23 -2 -11 -8 -23 -15 -27 -7 -5 -4 -8 7 -8 11 0 21 9 24 20 3
11 10 20 15 20 6 0 8 -9 5 -20 -3 -11 0 -20 6 -21 7 0 3 -4 -7 -8 -11 -4 -21
-20 -23 -35 -4 -26 -2 -28 22 -22 17 4 24 3 20 -4 -3 -5 -18 -10 -33 -10 -24
0 -24 -1 -8 -13 16 -12 16 -14 2 -26 -20 -17 -21 -41 -1 -41 8 0 15 -7 15 -15
0 -17 -29 -34 -47 -28 -7 3 -13 0 -13 -6 0 -16 38 -51 54 -51 10 0 14 -9 12
-27 -2 -19 2 -30 13 -35 14 -6 14 -7 -1 -7 -10 -1 -18 -5 -18 -10 0 -17 20
-23 35 -11 12 10 15 10 15 0 0 -6 -9 -14 -20 -17 -16 -4 -18 -8 -9 -19 9 -11
7 -14 -10 -14 -31 0 -26 -14 10 -27 21 -8 28 -16 23 -24 -6 -10 -9 -10 -12 -1
-5 17 -22 15 -22 -3 0 -8 -7 -15 -15 -15 -8 0 -15 -4 -15 -10 0 -5 7 -10 15
-10 8 0 29 -9 47 -20 l33 -20 -27 0 c-16 0 -28 5 -28 10 0 6 -9 10 -20 10 -11
0 -20 -5 -20 -11 0 -6 9 -13 20 -16 20 -5 28 -23 10 -23 -14 0 -13 -37 1 -42
8 -3 6 -10 -5 -20 -15 -16 -15 -18 1 -27 15 -9 16 -12 4 -20 -7 -5 -11 -13 -9
-17 3 -5 2 -18 -3 -29 -7 -19 -8 -19 -8 3 -1 12 -7 22 -14 22 -19 0 -13 -87 7
-109 16 -17 16 -19 0 -25 -13 -5 -15 -14 -10 -41 7 -33 -5 -48 -19 -25 -9 15
-27 1 -21 -16 3 -7 0 -16 -6 -20 -7 -4 -6 -9 3 -14 10 -7 10 -12 1 -23 -10
-12 -8 -13 13 -9 15 2 25 0 25 -7 0 -6 -9 -11 -19 -11 -11 0 -23 -9 -26 -21
-6 -16 -9 -18 -21 -8 -13 11 -14 9 -8 -15 5 -23 4 -27 -11 -24 -10 2 -20 -3
-22 -9 -3 -7 2 -13 11 -13 16 0 21 -12 9 -23 -3 -4 -12 -2 -20 4 -18 15 -17 1
1 -17 10 -9 17 -10 21 -4 4 6 11 8 16 4 17 -10 -1 -24 -31 -24 -29 0 -48 -16
-35 -28 4 -4 10 -1 12 6 3 6 9 12 14 12 6 0 7 -4 4 -10 -3 -6 4 -10 16 -10 18
0 20 -3 11 -12 -7 -7 -18 -13 -25 -14 -7 0 -20 -2 -31 -2 -11 -1 -16 -7 -13
-16 3 -8 -3 -17 -16 -21 l-22 -8 23 -4 c13 -3 29 0 36 6 13 11 26 5 26 -11 0
-5 -6 -8 -12 -7 -7 0 -23 -2 -35 -6 -24 -8 -39 -45 -17 -45 10 0 11 -6 5 -22
-4 -13 -6 -29 -4 -35 3 -8 -4 -13 -17 -13 -12 0 -18 -4 -15 -10 3 -5 -3 -10
-14 -10 -26 0 -51 -10 -51 -21 0 -5 11 -9 24 -9 35 0 42 -18 13 -31 -22 -10
-24 -15 -17 -45 7 -32 -1 -46 -15 -24 -11 18 -21 11 -34 -25 -7 -20 -19 -35
-29 -36 -10 -1 -7 -4 8 -9 l25 -7 -27 -11 c-16 -6 -28 -18 -28 -27 0 -8 -9
-15 -20 -15 -11 0 -20 -6 -20 -14 0 -9 8 -12 25 -8 14 2 25 0 24 -4 -1 -16
-18 -49 -18 -38 -1 14 -41 26 -41 13 0 -5 4 -9 9 -9 13 0 22 -43 11 -54 -7 -7
-10 -6 -10 2 0 7 -4 12 -10 12 -5 0 -10 -9 -10 -20 0 -11 -4 -20 -10 -20 -5 0
-10 8 -10 18 0 14 -2 15 -10 2 -6 -9 -5 -19 3 -28 8 -11 8 -13 -4 -12 -34 5
-38 1 -28 -32 5 -18 9 -34 9 -35 0 -2 -9 -3 -20 -3 -11 0 -20 -4 -20 -10 0 -5
7 -10 15 -10 18 0 18 -4 3 -33 -6 -12 -14 -28 -18 -36 -3 -8 -13 -17 -21 -19
-11 -4 -12 -2 -1 9 6 7 12 20 12 28 0 11 -4 10 -19 -5 -10 -10 -18 -21 -18
-24 1 -13 -24 -58 -45 -80 -12 -13 -22 -28 -20 -33 1 -5 -2 -6 -8 -2 -25 15
-27 -9 -2 -31 l27 -25 -25 3 c-20 2 -26 -2 -28 -20 -3 -19 -8 -22 -34 -18 -28
4 -29 4 -13 -14 12 -14 14 -23 6 -37 -5 -11 -8 -31 -7 -46 2 -15 -1 -27 -5
-27 -5 0 -9 10 -10 23 l0 22 -10 -24 c-7 -17 -15 -22 -29 -18 -21 5 -29 -16
-10 -28 15 -10 12 -35 -5 -35 -8 0 -15 5 -15 11 0 6 -7 4 -15 -5 -8 -8 -15
-18 -15 -23 0 -4 -9 -14 -21 -21 -19 -12 -20 -15 -5 -31 18 -20 22 -41 4 -23
-18 18 -28 15 -28 -9 0 -12 -8 -23 -19 -26 -13 -3 -18 -10 -14 -21 5 -11 2
-14 -10 -9 -9 3 -17 2 -17 -3 0 -6 10 -10 23 -11 21 0 21 -1 2 -9 -12 -4 -27
-15 -34 -24 -7 -9 -24 -16 -37 -16 -13 0 -24 -6 -25 -12 -1 -7 -2 -20 -3 -28
-2 -8 -3 -23 -4 -34 -1 -12 -7 -16 -17 -12 -9 3 -15 0 -15 -8 0 -9 7 -12 19
-9 10 3 22 -1 26 -7 5 -9 2 -10 -13 -6 -14 5 -21 1 -25 -14 -3 -11 -13 -20
-23 -20 -16 0 -16 1 2 14 10 8 16 18 11 22 -4 4 -21 -7 -38 -24 -17 -18 -35
-32 -40 -32 -4 0 -13 -16 -20 -35 -8 -22 -24 -40 -41 -47 -15 -7 -22 -15 -16
-19 15 -10 0 -29 -23 -29 -10 0 -19 -4 -19 -10 0 -5 -10 -10 -22 -10 -15 0
-19 -3 -11 -11 13 -13 4 -61 -11 -56 -6 2 -10 11 -10 20 1 9 -4 13 -13 10 -10
-4 -12 -14 -7 -36 4 -20 3 -27 -5 -23 -6 4 -11 3 -11 -3 0 -5 7 -14 16 -19 11
-6 13 -11 5 -16 -6 -4 -11 -2 -11 3 0 6 -8 11 -17 11 -22 -1 -53 -23 -53 -39
0 -6 -10 -11 -22 -12 -22 0 -22 -1 -3 -9 11 -5 14 -9 8 -9 -7 -1 -15 -12 -19
-25 -3 -15 -11 -23 -19 -20 -8 3 -11 12 -8 20 4 10 0 12 -13 7 -11 -3 -21 -9
-24 -13 -3 -4 -22 -18 -43 -32 -23 -15 -34 -29 -28 -33 6 -3 11 -2 11 3 0 5 9
12 20 15 25 6 26 -1 3 -19 -17 -13 -17 -13 2 -14 l20 -1 -20 -11 c-23 -14 -40
-18 -72 -20 -18 0 -23 -6 -23 -28 0 -16 6 -31 13 -33 6 -3 2 -6 -10 -6 -13 -1
-23 4 -23 9 0 21 -20 9 -26 -15 -3 -14 -10 -25 -15 -25 -5 0 -9 -12 -10 -27
l-1 -28 -10 28 c-13 36 -28 25 -29 -21 l-1 -37 -11 28 c-6 15 -15 27 -20 27
-4 0 -6 -4 -3 -9 3 -5 -1 -22 -9 -37 -8 -16 -15 -27 -16 -24 0 3 -2 18 -4 34
-6 44 -11 40 -25 -19 -12 -51 -30 -69 -45 -45 -8 13 -35 13 -35 0 0 -6 11 -15
24 -20 13 -5 27 -13 30 -18 9 -15 -36 -2 -57 16 -9 8 -20 12 -24 9 -3 -4 -1
-7 5 -7 7 0 12 -4 12 -10 0 -5 -7 -10 -16 -10 -15 0 -44 -23 -44 -35 0 -3 6
-5 14 -3 8 2 15 -1 15 -7 0 -5 -10 -9 -22 -7 -34 4 -82 -20 -82 -42 0 -27 -22
-31 -30 -6 -8 26 -25 16 -25 -14 0 -13 -9 -31 -20 -41 -11 -10 -20 -13 -20 -7
0 6 5 12 12 14 6 2 8 9 4 16 -3 6 -13 9 -21 6 -8 -4 -12 -10 -9 -15 10 -17
-16 -50 -35 -44 -20 6 -46 -18 -36 -35 3 -5 -1 -10 -10 -10 -9 0 -13 5 -10 10
3 6 2 10 -3 10 -13 0 -23 -27 -16 -44 4 -10 -2 -12 -23 -10 -15 2 -22 1 -15
-2 6 -3 12 -14 12 -24 0 -19 -5 -20 -67 -22 -18 0 -33 -5 -33 -10 0 -5 -7 -2
-16 6 -24 25 -34 19 -34 -19 0 -28 -4 -35 -20 -35 -11 0 -20 -7 -20 -15 0 -8
-4 -15 -9 -15 -5 0 -8 11 -5 25 2 14 0 25 -6 25 -5 0 -10 -9 -10 -20 0 -13 -7
-20 -20 -20 -11 0 -20 -7 -20 -15 0 -9 6 -12 15 -9 8 4 15 1 15 -5 0 -6 -9
-11 -20 -11 -18 0 -25 10 -21 33 2 11 -9 8 -25 -8 -8 -8 -22 -11 -31 -8 -12 5
-15 2 -11 -8 16 -42 18 -59 9 -59 -5 0 -14 8 -20 17 -9 16 -12 15 -36 -12 -24
-28 -27 -29 -39 -13 -17 23 -26 13 -27 -31 0 -34 -1 -35 -10 -11 -10 24 -11
24 -24 6 -8 -10 -13 -22 -10 -26 2 -3 -11 -14 -29 -24 -27 -14 -38 -16 -55 -6
-12 6 -19 15 -16 21 4 5 1 9 -4 9 -10 0 -12 -7 -15 -50 -1 -8 -10 -15 -21 -15
-11 -1 -19 -6 -18 -13 2 -6 -4 -9 -12 -6 -7 3 -22 -4 -31 -15 -13 -15 -21 -18
-31 -10 -9 8 -14 7 -19 -5 -3 -9 -12 -16 -19 -16 -7 0 -18 -7 -25 -15 -9 -11
-16 -13 -24 -5 -5 5 -21 10 -34 10 -21 0 -22 -2 -12 -15 10 -13 9 -15 -11 -16
-13 -1 -32 -1 -41 0 -12 2 -18 -5 -18 -18 0 -12 -4 -21 -10 -21 -5 0 -10 7
-10 15 0 8 -7 15 -15 15 -20 0 -19 -6 5 -40 20 -28 20 -28 0 -23 -11 3 -18 9
-15 13 3 5 1 11 -5 15 -13 8 -80 -16 -74 -27 5 -8 -21 -11 -68 -8 -16 1 -28
-4 -28 -10 0 -6 4 -9 8 -6 4 2 14 0 22 -5 11 -8 5 -9 -22 -7 -21 2 -38 0 -38
-4 0 -4 -7 -8 -15 -8 -20 0 -19 10 3 26 15 12 15 13 -10 14 -21 0 -26 -4 -21
-17 5 -13 2 -15 -15 -11 -32 9 -38 -10 -8 -22 33 -12 34 -24 1 -16 -18 5 -25
2 -25 -9 0 -8 -6 -15 -14 -15 -8 0 -17 -6 -20 -12 -4 -7 -4 -3 -2 8 3 17 -1
20 -15 17 -11 -3 -19 -12 -19 -19 0 -8 -7 -14 -15 -14 -18 0 -20 36 -2 43 6 2
9 8 5 12 -5 5 -17 0 -28 -10 -15 -14 -17 -21 -9 -32 14 -16 5 -17 -21 -3 -26
14 -62 -8 -54 -32 8 -27 -6 -22 -38 14 -16 19 -28 26 -28 17 -1 -29 -35 -57
-64 -52 -18 4 -41 -2 -65 -15 -37 -21 -37 -21 -51 -2 -19 26 -50 26 -50 0 0
-11 -4 -20 -10 -20 -5 0 -7 7 -4 15 4 8 2 15 -2 15 -15 -1 -40 -24 -47 -42 -3
-10 -14 -18 -24 -18 -10 0 -28 -3 -40 -6 -14 -4 -23 -2 -23 5 0 6 9 11 19 11
27 0 52 11 46 20 -6 10 -43 1 -71 -17 -11 -7 -23 -10 -27 -7 -12 13 -95 11
-91 -1 6 -15 -22 -39 -35 -31 -6 4 -8 13 -4 21 4 11 1 13 -11 9 -9 -3 -15 -14
-14 -22 2 -13 -5 -16 -35 -13 -27 2 -39 -2 -43 -14 -4 -10 -13 -13 -25 -10
-10 3 -30 -2 -44 -11 -30 -20 -47 -10 -19 11 17 13 17 14 2 15 -22 0 -24 20
-2 20 8 0 13 4 9 10 -8 12 -51 -5 -47 -19 4 -18 -26 -13 -38 7 -11 16 -11 16
-6 0 4 -14 -1 -18 -24 -18 -23 0 -28 4 -23 16 4 12 1 15 -13 12 -11 -2 -22
-17 -29 -40 -12 -43 -27 -62 -23 -29 2 18 -5 25 -37 37 -22 7 -47 11 -55 8
-11 -5 -9 -9 10 -14 24 -8 24 -8 3 -9 -22 -1 -34 -21 -13 -21 6 0 10 -4 10 -9
0 -6 -13 -5 -32 1 -18 6 -27 13 -20 16 25 8 10 20 -35 27 -27 4 -51 12 -55 18
-4 6 -10 8 -14 5 -4 -4 7 -15 25 -25 17 -10 31 -25 31 -33 0 -11 -2 -12 -8 -2
-12 18 -95 13 -88 -5 3 -8 1 -11 -4 -8 -17 10 -12 45 5 39 18 -7 19 0 4 29
l-12 21 -9 -23 c-4 -13 -17 -25 -29 -28 -12 -3 -18 -11 -15 -19 7 -19 -2 -18
-55 9 -48 25 -79 26 -59 2 11 -13 8 -17 -21 -28 -13 -4 -15 0 -11 21 5 25 4
25 -19 9 -29 -21 -40 -22 -33 -2 4 8 2 15 -4 15 -6 0 -18 3 -27 7 -14 5 -16 2
-10 -17 l7 -23 -36 21 c-44 26 -46 26 -46 8 0 -24 -22 -30 -36 -11 -11 14 -16
16 -28 6 -11 -9 -20 -10 -35 -2 -25 14 -48 5 -54 -20 -3 -10 -10 -19 -17 -19
-7 0 -9 8 -5 19 3 10 -1 24 -10 31 -10 9 -15 9 -15 1 0 -8 -14 -9 -42 -5 -41
6 -42 6 -23 -10 14 -12 16 -19 7 -22 -6 -3 -9 -11 -5 -17 4 -7 -1 -6 -11 2
-13 11 -14 16 -4 23 8 5 -6 8 -36 6 -27 -1 -54 -7 -60 -13 -15 -16 -76 -27
-76 -15 0 6 9 10 20 10 11 0 20 7 20 15 0 10 10 15 30 15 17 0 30 5 30 10 0 6
-16 10 -35 10 -23 0 -34 -4 -33 -12 4 -20 -61 -23 -68 -4 -3 9 -11 16 -16 16
-6 0 -8 -6 -5 -14 3 -8 1 -17 -6 -20 -7 -2 0 -5 15 -5 47 -2 42 -21 -5 -21
-42 0 -44 1 -39 25 6 32 -11 32 -37 -1 -25 -32 -51 -26 -51 11 0 16 -4 24 -11
19 -6 -3 -9 -17 -6 -30 3 -18 1 -22 -8 -14 -6 5 -15 7 -18 3 -4 -3 -7 3 -7 15
0 12 5 22 10 22 6 0 10 5 10 10 0 6 -7 10 -15 10 -8 0 -15 8 -15 17 0 13 -3
14 -12 5 -9 -9 -9 -15 0 -24 18 -18 14 -30 -8 -23 -16 5 -20 2 -20 -14 0 -12
-6 -21 -14 -21 -8 0 -21 -3 -30 -6 -9 -3 -16 -1 -16 5 0 6 6 10 13 9 7 -2 11
5 9 17 -2 11 -4 29 -6 39 -4 33 -23 29 -21 -4 1 -18 -3 -30 -11 -30 -7 0 -14
-10 -16 -21 -3 -22 -48 -48 -48 -29 0 6 9 10 20 10 15 0 19 6 17 22 -4 25 -27
37 -27 14 0 -23 -17 -19 -23 5 -5 18 -11 20 -32 15 -21 -5 -28 -3 -32 13 -6
23 -23 19 -23 -5 0 -8 7 -14 15 -14 8 0 15 -5 15 -10 0 -6 -13 -9 -30 -8 -17
1 -30 8 -30 15 0 7 -4 13 -10 13 -5 0 -10 -6 -10 -14 0 -8 -13 -16 -29 -18
-21 -3 -28 -1 -24 9 3 8 12 12 20 9 7 -3 16 1 19 9 4 8 15 15 25 15 10 0 19 7
19 15 0 8 -6 15 -14 15 -8 0 -16 7 -20 15 -9 24 -24 17 -28 -12 l-3 -28 -20
22 c-11 13 -23 23 -27 23 -13 0 -9 -28 5 -33 7 -4 6 -6 -4 -6 -15 -1 -47 26
-38 32 2 1 16 9 32 17 27 13 36 30 17 30 -5 0 -10 -4 -10 -10 0 -5 -7 -10 -16
-10 -9 0 -25 -10 -35 -21 -18 -21 -18 -22 4 -40 17 -14 18 -18 6 -19 -8 0 -26
11 -39 25 -13 14 -29 25 -37 25 -7 0 -13 4 -13 10 0 5 13 7 30 4 18 -4 30 -2
30 4 0 6 -17 12 -37 14 -28 2 -47 -4 -70 -21 -18 -13 -33 -18 -33 -12 0 6 5
11 11 11 6 0 8 9 4 20 -4 13 -2 20 7 21 7 0 4 4 -7 9 -29 13 -36 12 -33 -4 5
-24 -17 -19 -24 6 -4 16 -6 18 -7 6 -1 -21 -2 -21 -37 -8 -18 7 -37 7 -55 1
-21 -7 -34 -5 -58 10 -38 23 -38 23 -44 1 -3 -9 -4 -1 -4 18 2 32 0 35 -24 32
-18 -1 -29 5 -39 23 -14 25 -33 25 -23 0 4 -12 -3 -15 -32 -15 -30 0 -36 3
-31 16 4 12 2 15 -9 10 -17 -6 -21 9 -5 19 6 3 10 15 10 26 0 24 -20 26 -21 2
0 -11 -3 -13 -6 -5 -2 6 -14 12 -24 12 -11 0 -17 5 -14 10 4 6 11 8 17 4 6 -4
8 3 6 17 -4 27 -28 38 -29 12 0 -16 -1 -16 -8 2 -5 11 -4 25 1 33 14 17 48 15
48 -3 0 -8 5 -15 10 -15 6 0 10 -8 10 -17 0 -9 3 -14 6 -10 14 14 -19 93 -44
105 -22 10 -25 9 -35 -18 -13 -33 -32 -42 -22 -10 8 25 -22 28 -40 3 -7 -9
-17 -13 -24 -8 -9 5 -10 10 -2 18 18 18 12 34 -14 41 -14 4 -25 13 -25 21 0
18 12 19 28 3 9 -9 12 -7 12 9 0 28 -49 42 -66 18 -7 -10 -15 -12 -18 -6 -4 6
5 18 19 27 18 12 23 20 16 27 -7 7 -7 15 1 24 15 19 4 27 -21 14 -12 -7 -18
-17 -15 -26 4 -8 1 -15 -5 -15 -11 0 -15 20 -11 49 2 20 -20 31 -52 24 -17 -3
-28 -1 -28 6 0 6 8 11 19 11 12 0 20 9 24 27 5 29 -7 45 -30 36 -21 -8 -15 15
7 27 16 9 20 8 20 -5 0 -8 7 -15 16 -15 11 0 14 5 10 16 -4 10 1 22 11 30 16
13 15 14 -9 8 -18 -4 -28 -2 -28 5 0 15 -27 14 -34 -1 -4 -7 -5 -4 -3 7 2 12
-7 36 -20 55 -22 34 -24 34 -29 13 -8 -29 -24 -30 -24 -3 0 11 -7 23 -15 26
-26 11 -16 21 20 20 19 -1 35 -4 35 -8 0 -5 7 -8 15 -8 9 0 15 -9 15 -22 0
-16 3 -19 11 -11 7 7 8 17 3 25 -5 7 -9 27 -9 43 0 25 -4 30 -23 29 -12 0 -21
4 -19 10 3 6 10 10 16 9 16 -4 13 8 -5 22 -14 10 -14 13 -2 26 26 26 15 61
-23 75 l-34 12 27 7 c15 4 32 4 37 0 7 -3 8 0 5 9 -3 9 -14 16 -23 16 -22 0
-71 -23 -71 -33 0 -5 5 -5 10 -2 6 3 10 -3 10 -14 0 -12 -4 -21 -9 -21 -11 0
-41 28 -41 39 0 4 -13 7 -30 6 -16 -1 -30 2 -30 7 0 4 7 8 16 8 9 0 24 8 33
18 22 23 63 29 55 8 -8 -22 9 -20 37 4 16 14 19 20 9 19 -34 -3 -60 13 -60 37
0 13 5 23 11 21 6 -1 14 4 16 11 3 7 -3 12 -14 12 -11 0 -20 6 -20 13 0 9 10
13 29 11 15 -2 28 1 28 6 0 6 -10 11 -22 11 -17 1 -19 2 -5 6 20 5 22 14 5 32
-10 11 -10 14 0 18 6 3 12 9 12 15 0 6 -7 4 -17 -3 -14 -12 -17 -12 -21 0 -2
7 -13 22 -24 33 -11 11 -17 23 -13 26 3 4 10 0 15 -8 8 -12 10 -12 16 3 3 9
12 17 20 17 8 0 14 5 14 10 0 13 -27 13 -35 0 -3 -5 -15 -10 -26 -10 -11 0
-18 4 -15 9 3 5 -2 12 -12 16 -15 6 -14 8 6 16 27 10 19 33 -9 26 -23 -6 -23
-4 -4 34 16 29 13 49 -6 49 -5 0 -9 -9 -9 -21 0 -11 -4 -17 -10 -14 -6 4 -8
15 -5 26 5 14 2 19 -10 19 -13 0 -16 6 -11 25 5 18 2 25 -9 25 -10 0 -15 10
-14 33 l1 32 13 -29 c12 -28 13 -29 23 -9 14 25 -7 61 -27 48 -9 -5 -12 -2 -9
11 4 25 38 32 38 8 0 -14 3 -15 12 -6 10 10 10 15 -1 21 -8 5 -14 23 -15 40
-1 31 -2 32 -39 26 l-38 -7 5 52 c5 51 4 52 -20 46 -14 -4 -24 -2 -24 4 0 5 5
10 10 10 6 0 10 9 10 20 0 11 5 20 10 20 6 0 10 7 10 16 0 14 -3 14 -15 4 -12
-10 -19 -10 -27 -2 -9 9 -9 12 -1 12 6 0 17 15 24 33 7 17 14 35 17 40 2 4 0
7 -5 7 -4 0 -14 -14 -21 -30 -8 -17 -18 -27 -23 -24 -6 3 -5 11 2 20 6 8 8 14
4 14 -4 0 -2 7 5 15 18 22 20 73 3 79 -19 8 -16 26 5 26 13 0 14 2 3 9 -7 5
-10 14 -7 20 5 7 -2 11 -18 11 -26 0 -38 19 -13 21 10 0 10 2 0 6 -18 7 -16
33 2 33 8 0 15 -9 15 -19 0 -21 17 -37 27 -27 3 3 1 12 -5 19 -14 16 -6 27 20
27 11 0 17 4 14 8 -3 5 -30 8 -60 7 -52 -1 -55 0 -50 21 4 15 0 26 -13 33 -13
8 -15 13 -6 19 9 6 7 11 -7 20 -17 10 -20 8 -26 -26 -7 -34 -8 -35 -14 -12 -4
16 0 37 11 57 12 21 15 35 8 39 -6 3 -8 12 -5 20 3 7 -6 22 -19 33 -14 10 -25
26 -25 35 0 9 -4 16 -9 16 -5 0 -12 16 -15 35 -7 35 -20 46 -29 23 -2 -7 -7
-10 -11 -7 -9 8 31 99 44 99 5 0 -7 17 -28 38 -21 21 -42 47 -46 58 -6 14 -10
15 -13 5 -4 -10 -7 -11 -13 -1 -13 20 -31 1 -24 -26 4 -14 2 -24 -5 -24 -6 0
-11 -4 -11 -10 0 -5 9 -10 20 -10 13 0 20 7 20 20 0 27 27 25 36 -2 5 -13 7
-27 6 -31 -1 -5 2 -6 8 -2 6 3 10 -3 10 -16 0 -17 -3 -19 -14 -10 -10 8 -16 9
-21 1 -11 -18 -27 -11 -20 9 5 16 1 19 -19 17 -15 -2 -27 3 -31 11 -3 9 -12
13 -20 9 -8 -3 -17 -1 -20 4 -4 6 5 10 19 10 17 0 26 5 26 16 0 12 -6 15 -25
10 -18 -5 -25 -2 -25 9 0 8 -7 15 -15 15 -11 0 -15 11 -15 40 0 29 -4 40 -15
40 -12 0 -15 -13 -15 -57 0 -78 -10 -61 -14 23 -1 38 -1 63 1 57 3 -8 22 -13
46 -13 23 0 55 -7 71 -15 34 -18 36 -18 36 -5 0 6 -7 10 -15 10 -8 0 -15 4
-15 9 0 5 -16 12 -35 15 -19 4 -35 12 -35 17 0 6 -15 9 -32 7 -33 -3 -34 -2
-29 43 1 8 6 8 16 -1 9 -7 18 -10 22 -7 3 4 -2 9 -11 13 -20 8 -21 24 -1 24 8
0 15 5 15 10 0 19 -32 10 -37 -10 -7 -26 -33 -26 -33 -1 0 11 -6 21 -12 24 -9
3 -7 9 6 19 21 17 14 40 -10 31 -8 -3 -25 6 -39 21 -13 14 -21 26 -18 26 3 0
0 7 -8 16 -11 14 -9 15 17 12 24 -2 29 -7 26 -27 -2 -20 1 -23 22 -19 20 4 27
0 35 -23 6 -19 17 -29 30 -29 10 0 21 -6 24 -12 2 -7 8 -9 13 -5 5 4 2 12 -5
17 -8 4 -11 15 -8 24 7 18 -4 21 -20 5 -8 -8 -13 -3 -18 19 -3 16 -15 38 -25
47 -10 9 -22 30 -25 47 -6 26 -8 27 -19 12 -9 -12 -13 -13 -13 -3 0 8 -3 28
-7 44 -3 17 -3 24 0 17 3 -6 10 -10 15 -6 16 9 10 24 -11 24 -14 0 -18 5 -13
18 4 9 11 21 17 25 6 4 -11 5 -38 1 -35 -5 -47 -4 -42 5 4 6 15 11 24 12 14 0
13 2 -3 9 -17 7 -17 9 -2 9 36 2 9 31 -29 31 -17 0 -19 -27 -1 -33 6 -2 9 -8
5 -12 -4 -4 -14 -2 -23 5 -17 14 -49 6 -43 -12 5 -15 -20 -43 -30 -34 -3 4 -2
10 4 14 19 12 25 42 9 42 -19 0 -19 16 0 24 8 3 15 12 15 21 0 8 4 15 9 15 15
0 23 -18 11 -25 -12 -7 -4 -25 10 -25 6 0 9 24 7 54 -1 36 -6 52 -14 49 -6 -3
-25 5 -42 18 -28 20 -29 23 -13 36 16 12 16 14 0 24 -19 11 -25 39 -8 39 6 0
10 7 8 16 -2 10 3 19 10 21 6 3 12 0 12 -6 0 -6 5 -11 11 -11 6 0 9 6 6 14 -3
7 0 19 6 25 8 8 8 11 -2 11 -7 0 -9 5 -6 10 7 11 0 12 -32 4 -13 -4 -20 -10
-17 -16 3 -5 11 -5 19 2 8 7 15 7 19 1 4 -5 -7 -16 -23 -24 -28 -14 -29 -14
-35 15 -3 16 -10 27 -16 23 -5 -3 -10 -1 -10 4 0 6 7 11 16 11 11 0 14 5 10
17 -4 9 -1 20 6 25 10 6 10 10 -2 18 -10 6 -16 6 -18 0 -7 -19 -20 -10 -26 16
-4 15 -2 32 3 37 23 23 11 32 -36 28 -27 -2 -45 0 -42 3 3 4 28 8 55 10 31 3
50 9 52 18 2 10 -7 13 -38 10 -26 -3 -40 0 -40 8 0 7 8 9 20 5 24 -7 27 10 4
19 -20 8 -34 -1 -35 -22 0 -9 -3 -12 -5 -6 -8 18 14 64 31 64 8 0 15 -3 15 -8
0 -4 8 -12 18 -19 17 -10 19 -8 19 18 0 15 -5 25 -10 22 -5 -3 -13 0 -17 7 -5
9 -18 5 -48 -14 -45 -28 -57 -32 -46 -15 3 6 1 15 -6 19 -9 5 -9 9 -1 14 6 4
11 2 11 -3 0 -16 26 -13 40 4 7 8 28 15 46 15 19 0 34 5 34 11 0 6 -16 10 -37
8 -21 -1 -43 -1 -50 0 -19 2 -3 30 26 46 15 8 20 14 11 15 -13 0 -13 1 0 10
22 15 30 12 30 -10 0 -10 -8 -24 -17 -29 -16 -9 -16 -10 3 -11 31 0 94 -33 71
-38 -13 -3 -16 -10 -11 -30 10 -41 19 -45 22 -10 2 18 10 41 20 52 9 11 11 16
4 12 -14 -8 -60 10 -75 29 -4 5 -5 20 -2 31 3 15 -1 23 -14 27 -13 3 -20 17
-24 48 -7 52 10 68 64 65 35 -3 35 -2 17 16 -19 19 -25 68 -8 68 6 0 10 -4 10
-10 0 -5 5 -10 12 -10 6 0 3 9 -7 20 -10 11 -29 20 -42 20 -12 0 -22 3 -22 8
5 32 -2 42 -26 36 -19 -5 -25 -2 -25 10 0 9 3 15 8 13 4 -1 7 2 7 8 0 5 -3 9
-7 8 -4 -2 -5 4 -1 12 4 12 9 13 19 4 7 -6 17 -8 22 -5 6 3 13 -5 16 -19 6
-25 20 -33 30 -16 3 5 -1 14 -9 21 -8 7 -15 18 -15 24 0 7 -15 16 -32 21 -39
12 -54 55 -20 55 11 0 22 5 24 11 6 17 48 1 48 -17 0 -8 4 -13 9 -10 5 4 3 19
-5 35 -15 30 -10 86 7 75 5 -3 9 -1 9 4 0 6 -7 12 -15 16 -8 3 -15 12 -15 21
0 8 -4 15 -9 15 -5 0 -8 -14 -6 -30 5 -40 -11 -30 -17 10 -3 19 0 30 8 30 6 0
14 7 18 15 3 8 12 15 20 15 17 0 28 -37 12 -44 -6 -2 -3 -5 6 -5 9 -1 21 -8
26 -16 10 -18 42 -10 42 11 0 8 -6 11 -15 8 -18 -7 -45 13 -45 33 0 10 6 13
16 9 9 -3 21 -3 27 1 7 4 3 9 -12 13 -38 9 -38 29 0 27 18 -1 34 3 36 10 3 7
-7 11 -25 11 -16 -1 -34 2 -41 6 -15 10 -14 48 3 72 12 16 18 17 34 7 22 -13
32 -8 32 18 0 12 -5 16 -15 13 -10 -4 -15 0 -15 15 0 12 -5 21 -10 21 -6 0 -8
-11 -4 -25 3 -14 2 -25 -4 -25 -14 0 -36 29 -28 37 3 4 -4 17 -16 30 -24 26
-18 44 8 22 15 -12 16 -11 10 18 -9 39 10 81 27 63 9 -8 8 -14 -5 -21 -24 -13
-23 -29 2 -29 15 0 22 9 27 30 6 34 23 41 23 10 0 -11 5 -20 10 -20 6 0 10 9
10 21 0 11 5 17 10 14 6 -3 10 -1 10 5 0 6 -7 13 -15 16 -26 11 -4 26 29 20
24 -4 27 -3 14 4 -9 6 -15 17 -12 25 4 8 1 15 -5 15 -6 0 -11 5 -11 10 0 17
25 11 37 -9 15 -24 76 -24 81 -1 3 17 -33 21 -55 7 -22 -14 -25 14 -3 33 12
10 19 23 16 29 -11 17 5 41 28 42 18 1 17 2 -6 9 -46 14 -54 22 -29 32 13 5
31 4 43 -3 22 -12 34 -6 23 10 -3 6 -19 11 -36 11 -21 0 -29 5 -29 18 0 13 2
14 9 3 6 -10 17 -11 37 -6 29 7 29 7 7 18 -13 5 -23 16 -23 24 0 16 50 38 59
26 12 -17 61 -43 61 -33 0 5 -3 10 -8 10 -4 0 -13 10 -21 23 -10 17 -11 19 0
10 7 -7 18 -13 23 -13 15 0 18 60 5 77 -7 7 -8 13 -4 13 4 0 1 7 -6 17 -13 15
-11 16 13 10 30 -8 63 16 54 39 -4 10 3 14 20 14 18 0 24 4 21 13 -3 8 -1 20
4 28 7 11 9 11 9 -3 0 -12 8 -18 22 -18 19 0 20 2 6 18 -8 9 -18 25 -21 34 -5
14 -1 16 29 11 32 -5 34 -4 34 23 0 20 7 32 22 39 12 6 24 17 26 25 4 11 2 11
-11 -2 -27 -26 -57 -32 -75 -14 -14 14 -14 16 -1 16 8 0 20 -5 26 -11 8 -8 16
-4 28 15 13 19 23 25 36 21 16 -5 18 -2 15 17 -2 13 0 28 4 33 4 6 10 19 13
30 4 17 5 17 6 -4 1 -20 3 -21 16 -11 12 10 15 10 15 -3 0 -29 28 -27 40 4 7
16 21 34 31 40 29 15 23 32 -8 25 -16 -3 -22 -3 -15 0 6 3 12 12 12 20 0 20
14 17 35 -6 10 -11 30 -20 44 -19 26 0 26 0 4 9 -15 6 -23 18 -23 33 0 28 28
43 80 42 23 0 34 -4 32 -12 -1 -7 2 -13 8 -13 12 0 12 3 4 24 -3 9 -18 16 -33
17 l-26 0 24 10 c16 6 28 6 35 -1 5 -5 18 -10 27 -10 10 0 20 -6 22 -12 3 -7
3 2 0 20 -3 19 -1 32 5 32 6 0 17 3 26 6 11 4 16 0 17 -12 1 -11 5 -1 10 21
13 52 36 85 48 66 5 -7 14 -10 21 -6 8 5 7 12 -5 25 -14 16 -14 18 1 31 14 11
17 11 25 -4 6 -9 20 -17 32 -17 12 0 17 4 12 8 -17 11 -16 52 1 52 8 0 14 -5
14 -11 0 -7 10 -9 26 -5 15 4 32 2 40 -5 8 -7 18 -8 22 -4 4 4 1 10 -5 12 -19
7 -16 40 4 48 10 3 19 1 21 -4 5 -14 32 -14 32 -1 0 6 9 10 20 10 11 0 20 5
20 10 0 6 -5 10 -12 10 -6 0 -9 3 -6 6 3 3 22 -2 42 -10 23 -9 38 -11 42 -5 7
12 7 12 -26 26 l-25 10 33 5 c21 3 32 0 32 -7 0 -7 13 -12 30 -11 18 1 30 6
30 15 0 11 3 11 15 1 12 -10 15 -10 15 3 0 9 -8 20 -17 26 -22 12 -8 18 53 23
30 2 40 0 37 -9 -3 -7 -9 -13 -14 -13 -5 0 -9 -7 -9 -15 0 -37 35 -1 52 54 15
47 30 55 22 11 -5 -23 -3 -30 10 -30 9 0 16 6 16 14 0 8 7 16 15 20 9 3 12 13
9 23 -4 13 -1 12 12 -5 l17 -22 18 21 c22 26 24 40 7 58 -11 11 -9 13 10 8 15
-3 22 -1 22 9 0 8 5 14 10 14 6 0 10 -4 10 -10 0 -16 60 -12 66 5 4 8 16 15
28 15 19 -1 19 -2 4 -11 -10 -5 -18 -16 -18 -23 0 -23 27 -26 46 -5 11 12 21
16 27 10 6 -6 19 0 35 16 18 18 22 27 12 33 -9 6 -9 9 0 15 6 4 20 -1 31 -11
16 -14 22 -15 32 -5 9 11 9 14 -1 18 -6 3 -10 9 -6 14 3 5 13 5 25 -2 14 -7
18 -16 14 -32 -6 -20 -5 -21 8 -4 17 21 41 23 33 2 -6 -17 9 -21 19 -5 5 8 11
7 21 -1 11 -9 14 -8 14 2 0 34 102 71 127 46 9 -10 23 -9 23 2 0 5 -10 12 -22
16 -20 7 -18 9 14 12 26 3 35 8 32 18 -3 7 -1 16 5 20 6 3 11 0 11 -9 0 -17
32 -15 38 3 3 9 8 9 19 -1 19 -15 45 -17 56 -3 4 7 10 6 15 -1 4 -6 21 -11 37
-10 17 1 36 -3 43 -8 8 -6 12 -3 12 8 0 10 11 19 30 23 17 3 33 10 36 14 7 13
74 11 74 -1 0 -7 16 -9 43 -6 23 3 71 1 106 -5 69 -11 108 2 49 16 l-33 8 29
4 c16 3 33 0 39 -6 6 -6 24 -11 39 -11 15 0 28 -4 28 -9 0 -13 45 -7 64 8 12
10 14 9 9 -8 -4 -15 -1 -21 11 -21 9 0 16 5 16 11 0 5 5 7 10 4 17 -10 34 6
19 17 -10 7 -2 8 23 5 25 -4 41 -1 49 9 6 8 26 14 44 14 28 0 32 -3 28 -20z"/>
</g>
</svg>
